<svg version="1.1" id="Layer_1" xmlns="http://www.w3.org/2000/svg" xmlns:xlink="http://www.w3.org/1999/xlink" x="0px" y="0px"
	 width="100%" viewBox="0 0 652 151" enable-background="new 0 0 652 151" xml:space="preserve">
<path fill="#FFFEFE" opacity="1.000000" stroke="none" 
	d="
M440.000000,152.000000 
	C293.378815,152.000000 147.257660,152.000000 1.068243,152.000000 
	C1.068243,101.727905 1.068243,51.455696 1.068243,1.091743 
	C218.333313,1.091743 435.666656,1.091743 652.966797,1.091743 
	C652.966797,51.408958 652.966797,101.704491 652.966797,152.000000 
	C582.122375,152.000000 511.311188,152.000000 440.000000,152.000000 
M307.445526,69.837990 
	C293.447845,69.838745 279.449982,69.798798 265.452576,69.861008 
	C260.127106,69.884674 258.018829,71.848976 257.996826,76.962463 
	C257.922211,94.292625 257.920227,111.623535 257.999359,128.953659 
	C258.021332,133.763763 260.238831,135.783264 265.110626,135.995926 
	C265.775940,136.024963 266.443542,135.999756 267.110107,136.002136 
	C282.082153,136.055573 282.081482,136.055634 282.079376,121.302399 
	C282.078064,112.187233 282.079132,103.072075 282.079132,93.576294 
	C291.022522,93.576294 299.338898,93.716499 307.646179,93.503693 
	C310.744354,93.424339 312.442657,94.595375 313.999878,97.142532 
	C319.295654,105.804565 324.722992,114.390251 330.277557,122.889114 
	C340.714874,138.859039 335.150879,135.721527 354.633240,135.866135 
	C356.939789,135.883270 360.487000,134.602768 361.257477,132.917313 
	C362.179230,130.900909 361.482147,127.338181 360.187866,125.249832 
	C353.349915,114.216446 346.096436,103.440811 339.008209,92.562004 
	C338.233490,91.373001 337.594452,90.095589 337.330322,89.630409 
	C342.588776,85.500938 348.275879,82.460335 351.998444,77.837700 
	C362.168671,65.208458 362.491425,50.630165 356.441162,36.336407 
	C350.650665,22.656347 339.135437,14.948132 324.507812,14.131929 
	C304.738983,13.028851 284.887695,13.340008 265.070679,13.208850 
	C260.233734,13.176838 258.038269,15.532092 257.997101,20.326260 
	C257.856262,36.738182 256.689423,37.287052 273.992645,37.047497 
	C288.486908,36.846828 302.990143,36.857346 317.482910,37.125790 
	C328.463318,37.329174 335.501984,43.913342 335.846893,53.588818 
	C336.164856,62.509865 330.157837,68.153282 318.891998,69.323212 
	C315.422577,69.683502 311.915070,69.676651 307.445526,69.837990 
M480.421509,137.164047 
	C489.864685,137.161255 489.876801,137.166183 493.451385,128.373016 
	C497.833069,117.594475 502.193604,106.807320 506.560303,96.022667 
	C516.229797,72.141434 525.903931,48.262043 535.562317,24.376307 
	C538.777954,16.423729 536.542114,13.190596 527.843994,13.152642 
	C525.345032,13.141738 522.829712,13.333319 520.350220,13.113223 
	C515.216309,12.657507 512.530762,14.998746 510.689880,19.746035 
	C500.894989,45.005657 490.847198,70.167244 480.870422,95.356224 
	C480.205078,97.036072 479.403320,98.661888 478.389404,100.929169 
	C469.911133,79.565292 461.731476,58.953888 453.249023,37.579498 
	C460.057037,37.579498 465.858673,37.579502 471.660309,37.579502 
	C486.992859,37.579502 486.992889,37.579498 486.896790,22.460548 
	C486.850403,15.159461 484.947174,13.170562 477.801941,13.159164 
	C461.474884,13.133121 445.147675,13.124599 428.820679,13.161986 
	C420.568848,13.180882 418.338806,16.573652 421.436615,24.224848 
	C435.160065,58.120213 448.900055,92.008904 462.603027,125.912537 
	C467.671906,138.453842 465.963409,137.096725 480.421509,137.164047 
M231.050659,29.520967 
	C231.425766,12.348083 231.270584,13.002291 214.162781,13.155855 
	C213.996277,13.157351 213.829330,13.156430 213.663391,13.168049 
	C209.329742,13.471473 206.923645,15.598371 206.939148,20.136902 
	C206.965897,27.964497 206.941437,35.792263 206.939941,43.619961 
	C206.938736,49.887074 206.939713,56.154182 206.939713,62.836876 
	C204.523392,62.836876 202.726303,62.836861 200.929214,62.836876 
	C180.110870,62.837040 159.292496,62.826920 138.474167,62.842903 
	C131.068680,62.848591 129.491241,64.473503 129.421768,71.996979 
	C129.418701,72.330048 129.420563,72.663170 129.420532,72.996262 
	C129.419022,90.650223 129.409943,108.304192 129.419205,125.958145 
	C129.423965,135.004700 130.556168,136.150101 139.373383,136.162643 
	C140.872299,136.164780 142.371231,136.164932 143.870148,136.162811 
	C152.486465,136.150650 153.786682,134.889206 153.794571,126.452194 
	C153.805313,114.960472 153.787689,103.468719 153.808151,91.977028 
	C153.811005,90.377060 153.961609,88.777367 154.042572,87.201447 
	C171.860291,87.201447 189.239151,87.201447 206.523788,87.201447 
	C206.713181,87.860001 206.878662,88.168251 206.879501,88.476936 
	C206.909058,99.301788 207.001312,110.127258 206.920685,120.951431 
	C206.805634,136.399384 206.074326,136.379227 222.217987,136.171310 
	C229.580460,136.076492 231.042450,134.705322 231.045227,127.444382 
	C231.057571,95.134300 231.050446,62.824219 231.050659,29.520967 
M74.751617,129.963013 
	C74.751617,99.350693 74.751617,68.738380 74.751617,37.587605 
	C77.104034,37.587605 78.893471,37.588245 80.682907,37.587490 
	C89.181969,37.583900 97.681152,37.604420 106.180054,37.565620 
	C110.339958,37.546635 113.969223,35.875069 113.629440,31.383009 
	C113.174538,25.368994 117.142876,18.089310 109.573746,13.711552 
	C108.766525,13.244678 107.643250,13.175187 106.666122,13.173365 
	C90.167938,13.142589 73.669441,13.102249 57.171612,13.184225 
	C52.589127,13.206993 50.063107,15.686507 50.061512,20.378733 
	C50.049072,57.041496 50.053360,93.704269 50.058365,130.367035 
	C50.058987,134.900818 52.466866,137.081436 56.885479,137.149414 
	C60.384293,137.203262 63.885433,137.114456 67.383919,137.178101 
	C71.760727,137.257736 74.329605,135.328812 74.751617,129.963013 
M605.500000,13.151570 
	C592.500244,13.151563 579.500427,13.151552 566.500671,13.151548 
	C550.915710,13.151543 550.915649,13.151546 551.059326,28.573702 
	C551.123779,35.492294 552.721069,37.140247 559.611938,37.154175 
	C574.278259,37.183823 588.944702,37.163387 603.611084,37.163403 
	C614.444214,37.163414 625.277405,37.188324 636.110474,37.154270 
	C643.065674,37.132404 643.994263,36.189545 644.002380,29.471405 
	C644.005798,26.638128 644.008301,23.804832 644.001831,20.971567 
	C643.987366,14.670730 642.528320,13.195041 635.999390,13.163898 
	C626.166504,13.116994 616.333130,13.151652 605.500000,13.151570 
M552.315247,115.063324 
	C551.895081,119.306892 551.216858,123.544235 551.114258,127.795464 
	C550.954590,134.411514 552.753357,136.139664 559.290649,136.155823 
	C575.104553,136.194901 590.918701,136.168991 606.732727,136.168854 
	C616.887024,136.168762 627.041748,136.226440 637.195374,136.144135 
	C642.743958,136.099167 643.969238,134.783737 644.004211,129.410110 
	C644.022583,126.580345 644.008728,123.750366 644.007263,120.920486 
	C644.003479,113.752045 642.817993,112.441833 635.731384,112.429916 
	C610.428955,112.387375 585.126160,112.360008 559.824463,112.501106 
	C557.497437,112.514091 555.177307,113.766487 552.315247,115.063324 
M612.499695,86.848526 
	C615.665710,86.848534 618.831665,86.848541 621.997681,86.848549 
	C637.284912,86.848579 637.284851,86.848579 637.203308,71.833069 
	C637.162231,64.272827 635.747009,62.846935 628.109680,62.841633 
	C607.280762,62.827179 586.451782,62.836536 565.622864,62.836494 
	C551.015076,62.836464 551.015076,62.836491 551.059387,77.452179 
	C551.082275,84.996704 552.905457,86.835548 560.510620,86.843185 
	C577.507019,86.860237 594.503479,86.848480 612.499695,86.848526 
M381.658813,81.503471 
	C381.661438,97.304359 381.616272,113.105484 381.692963,128.906021 
	C381.719299,134.336304 383.491547,136.018417 388.910736,136.144760 
	C392.401398,136.226151 395.896088,136.177643 399.388336,136.134323 
	C403.396790,136.084595 405.768311,133.946899 405.789429,130.020020 
	C405.898560,109.729073 405.890869,89.437080 405.810028,69.145905 
	C405.794830,65.330147 403.738098,62.787579 399.736450,62.585526 
	C395.757446,62.384621 391.752045,62.347012 387.775452,62.559635 
	C383.873505,62.768269 381.732910,65.027184 381.691925,69.029793 
	C381.652740,72.854919 381.667511,76.680603 381.658813,81.503471 
M129.847824,17.686432 
	C129.697632,25.004154 129.584290,32.322857 129.389893,39.639404 
	C128.925125,57.133488 130.082474,55.999199 146.544937,55.819862 
	C151.599350,55.764805 153.697174,53.479607 153.787476,48.283100 
	C153.900375,41.786205 153.816513,35.285885 153.817047,28.787043 
	C153.818375,12.771727 153.797806,12.603016 137.609497,13.298114 
	C135.048233,13.408091 132.578186,15.642745 129.847824,17.686432 
M405.869720,29.524237 
	C405.867493,26.534475 405.958832,23.541058 405.842102,20.555773 
	C405.643768,15.483615 403.531342,13.371684 398.434448,13.174637 
	C395.283295,13.052813 392.120087,13.056298 388.968536,13.172742 
	C383.809967,13.363340 381.791351,15.354870 381.695465,20.550097 
	C381.575958,27.025753 381.663940,33.505215 381.659973,39.983032 
	C381.650024,56.269619 381.790649,56.407288 397.931702,55.851330 
	C403.627197,55.655159 405.756653,53.612106 405.847473,47.956810 
	C405.940796,42.144863 405.868988,36.330269 405.869720,29.524237 
M39.132126,16.742813 
	C37.431786,15.574014 35.796204,13.528900 34.019196,13.397583 
	C28.246683,12.971005 22.409496,13.014558 16.622997,13.338202 
	C13.290613,13.524586 11.189839,15.812255 11.056494,19.283611 
	C10.903748,23.260023 10.952087,27.247566 11.024559,31.228243 
	C11.093354,35.007042 13.298991,37.210560 16.876955,37.390190 
	C22.500536,37.672512 28.155626,37.657646 33.782700,37.420471 
	C37.361588,37.269623 39.744186,35.110367 39.819241,31.389875 
	C39.912525,26.765736 39.605991,22.133530 39.132126,16.742813 
z"/>
<path fill="#FF9A02" opacity="1.000000" stroke="none" 
	d="
M307.935242,69.837952 
	C311.915070,69.676651 315.422577,69.683502 318.891998,69.323212 
	C330.157837,68.153282 336.164856,62.509865 335.846893,53.588818 
	C335.501984,43.913342 328.463318,37.329174 317.482910,37.125790 
	C302.990143,36.857346 288.486908,36.846828 273.992645,37.047497 
	C256.689423,37.287052 257.856262,36.738182 257.997101,20.326260 
	C258.038269,15.532092 260.233734,13.176838 265.070679,13.208850 
	C284.887695,13.340008 304.738983,13.028851 324.507812,14.131929 
	C339.135437,14.948132 350.650665,22.656347 356.441162,36.336407 
	C362.491425,50.630165 362.168671,65.208458 351.998444,77.837700 
	C348.275879,82.460335 342.588776,85.500938 337.330322,89.630409 
	C337.594452,90.095589 338.233490,91.373001 339.008209,92.562004 
	C346.096436,103.440811 353.349915,114.216446 360.187866,125.249832 
	C361.482147,127.338181 362.179230,130.900909 361.257477,132.917313 
	C360.487000,134.602768 356.939789,135.883270 354.633240,135.866135 
	C335.150879,135.721527 340.714874,138.859039 330.277557,122.889114 
	C324.722992,114.390251 319.295654,105.804565 313.999878,97.142532 
	C312.442657,94.595375 310.744354,93.424339 307.646179,93.503693 
	C299.338898,93.716499 291.022522,93.576294 282.079132,93.576294 
	C282.079132,103.072075 282.078064,112.187233 282.079376,121.302399 
	C282.081482,136.055634 282.082153,136.055573 267.110107,136.002136 
	C266.443542,135.999756 265.775940,136.024963 265.110626,135.995926 
	C260.238831,135.783264 258.021332,133.763763 257.999359,128.953659 
	C257.920227,111.623535 257.922211,94.292625 257.996826,76.962463 
	C258.018829,71.848976 260.127106,69.884674 265.452576,69.861008 
	C279.449982,69.798798 293.447845,69.838745 307.935242,69.837952 
z"/>
<path fill="#FF9A03" opacity="1.000000" stroke="none" 
	d="
M479.940765,137.164093 
	C465.963409,137.096725 467.671906,138.453842 462.603027,125.912537 
	C448.900055,92.008904 435.160065,58.120213 421.436615,24.224848 
	C418.338806,16.573652 420.568848,13.180882 428.820679,13.161986 
	C445.147675,13.124599 461.474884,13.133121 477.801941,13.159164 
	C484.947174,13.170562 486.850403,15.159461 486.896790,22.460548 
	C486.992889,37.579498 486.992859,37.579502 471.660309,37.579502 
	C465.858673,37.579502 460.057037,37.579498 453.249023,37.579498 
	C461.731476,58.953888 469.911133,79.565292 478.389404,100.929169 
	C479.403320,98.661888 480.205078,97.036072 480.870422,95.356224 
	C490.847198,70.167244 500.894989,45.005657 510.689880,19.746035 
	C512.530762,14.998746 515.216309,12.657507 520.350220,13.113223 
	C522.829712,13.333319 525.345032,13.141738 527.843994,13.152642 
	C536.542114,13.190596 538.777954,16.423729 535.562317,24.376307 
	C525.903931,48.262043 516.229797,72.141434 506.560303,96.022667 
	C502.193604,106.807320 497.833069,117.594475 493.451385,128.373016 
	C489.876801,137.166183 489.864685,137.161255 479.940765,137.164093 
z"/>
<path fill="#FF9A03" opacity="1.000000" stroke="none" 
	d="
M231.050507,30.017551 
	C231.050446,62.824219 231.057571,95.134300 231.045227,127.444382 
	C231.042450,134.705322 229.580460,136.076492 222.217987,136.171310 
	C206.074326,136.379227 206.805634,136.399384 206.920685,120.951431 
	C207.001312,110.127258 206.909058,99.301788 206.879501,88.476936 
	C206.878662,88.168251 206.713181,87.860001 206.523788,87.201447 
	C189.239151,87.201447 171.860291,87.201447 154.042572,87.201447 
	C153.961609,88.777367 153.811005,90.377060 153.808151,91.977028 
	C153.787689,103.468719 153.805313,114.960472 153.794571,126.452194 
	C153.786682,134.889206 152.486465,136.150650 143.870148,136.162811 
	C142.371231,136.164932 140.872299,136.164780 139.373383,136.162643 
	C130.556168,136.150101 129.423965,135.004700 129.419205,125.958145 
	C129.409943,108.304192 129.419022,90.650223 129.420532,72.996262 
	C129.420563,72.663170 129.418701,72.330048 129.421768,71.996979 
	C129.491241,64.473503 131.068680,62.848591 138.474167,62.842903 
	C159.292496,62.826920 180.110870,62.837040 200.929214,62.836876 
	C202.726303,62.836861 204.523392,62.836876 206.939713,62.836876 
	C206.939713,56.154182 206.938736,49.887074 206.939941,43.619961 
	C206.941437,35.792263 206.965897,27.964497 206.939148,20.136902 
	C206.923645,15.598371 209.329742,13.471473 213.663391,13.168049 
	C213.829330,13.156430 213.996277,13.157351 214.162781,13.155855 
	C231.270584,13.002291 231.425766,12.348083 231.050507,30.017551 
z"/>
<path fill="#FF9B05" opacity="1.000000" stroke="none" 
	d="
M74.742760,130.403168 
	C74.329605,135.328812 71.760727,137.257736 67.383919,137.178101 
	C63.885433,137.114456 60.384293,137.203262 56.885479,137.149414 
	C52.466866,137.081436 50.058987,134.900818 50.058365,130.367035 
	C50.053360,93.704269 50.049072,57.041496 50.061512,20.378733 
	C50.063107,15.686507 52.589127,13.206993 57.171612,13.184225 
	C73.669441,13.102249 90.167938,13.142589 106.666122,13.173365 
	C107.643250,13.175187 108.766525,13.244678 109.573746,13.711552 
	C117.142876,18.089310 113.174538,25.368994 113.629440,31.383009 
	C113.969223,35.875069 110.339958,37.546635 106.180054,37.565620 
	C97.681152,37.604420 89.181969,37.583900 80.682907,37.587490 
	C78.893471,37.588245 77.104034,37.587605 74.751617,37.587605 
	C74.751617,68.738380 74.751617,99.350693 74.742760,130.403168 
z"/>
<path fill="#FF9A03" opacity="1.000000" stroke="none" 
	d="
M606.000000,13.151605 
	C616.333130,13.151652 626.166504,13.116994 635.999390,13.163898 
	C642.528320,13.195041 643.987366,14.670730 644.001831,20.971567 
	C644.008301,23.804832 644.005798,26.638128 644.002380,29.471405 
	C643.994263,36.189545 643.065674,37.132404 636.110474,37.154270 
	C625.277405,37.188324 614.444214,37.163414 603.611084,37.163403 
	C588.944702,37.163387 574.278259,37.183823 559.611938,37.154175 
	C552.721069,37.140247 551.123779,35.492294 551.059326,28.573702 
	C550.915649,13.151546 550.915710,13.151543 566.500671,13.151548 
	C579.500427,13.151552 592.500244,13.151563 606.000000,13.151605 
z"/>
<path fill="#FF9B05" opacity="1.000000" stroke="none" 
	d="
M552.584595,114.753349 
	C555.177307,113.766487 557.497437,112.514091 559.824463,112.501106 
	C585.126160,112.360008 610.428955,112.387375 635.731384,112.429916 
	C642.817993,112.441833 644.003479,113.752045 644.007263,120.920486 
	C644.008728,123.750366 644.022583,126.580345 644.004211,129.410110 
	C643.969238,134.783737 642.743958,136.099167 637.195374,136.144135 
	C627.041748,136.226440 616.887024,136.168762 606.732727,136.168854 
	C590.918701,136.168991 575.104553,136.194901 559.290649,136.155823 
	C552.753357,136.139664 550.954590,134.411514 551.114258,127.795464 
	C551.216858,123.544235 551.895081,119.306892 552.584595,114.753349 
z"/>
<path fill="#FF9A03" opacity="1.000000" stroke="none" 
	d="
M611.999756,86.848495 
	C594.503479,86.848480 577.507019,86.860237 560.510620,86.843185 
	C552.905457,86.835548 551.082275,84.996704 551.059387,77.452179 
	C551.015076,62.836491 551.015076,62.836464 565.622864,62.836494 
	C586.451782,62.836536 607.280762,62.827179 628.109680,62.841633 
	C635.747009,62.846935 637.162231,64.272827 637.203308,71.833069 
	C637.284851,86.848579 637.284912,86.848579 621.997681,86.848549 
	C618.831665,86.848541 615.665710,86.848534 611.999756,86.848495 
z"/>
<path fill="#FF9A03" opacity="1.000000" stroke="none" 
	d="
M381.658691,81.004761 
	C381.667511,76.680603 381.652740,72.854919 381.691925,69.029793 
	C381.732910,65.027184 383.873505,62.768269 387.775452,62.559635 
	C391.752045,62.347012 395.757446,62.384621 399.736450,62.585526 
	C403.738098,62.787579 405.794830,65.330147 405.810028,69.145905 
	C405.890869,89.437080 405.898560,109.729073 405.789429,130.020020 
	C405.768311,133.946899 403.396790,136.084595 399.388336,136.134323 
	C395.896088,136.177643 392.401398,136.226151 388.910736,136.144760 
	C383.491547,136.018417 381.719299,134.336304 381.692963,128.906021 
	C381.616272,113.105484 381.661438,97.304359 381.658691,81.004761 
z"/>
<path fill="#FF9C09" opacity="1.000000" stroke="none" 
	d="
M129.956894,17.290745 
	C132.578186,15.642745 135.048233,13.408091 137.609497,13.298114 
	C153.797806,12.603016 153.818375,12.771727 153.817047,28.787043 
	C153.816513,35.285885 153.900375,41.786205 153.787476,48.283100 
	C153.697174,53.479607 151.599350,55.764805 146.544937,55.819862 
	C130.082474,55.999199 128.925125,57.133488 129.389893,39.639404 
	C129.584290,32.322857 129.697632,25.004154 129.956894,17.290745 
z"/>
<path fill="#FF9B04" opacity="1.000000" stroke="none" 
	d="
M405.869598,30.020535 
	C405.868988,36.330269 405.940796,42.144863 405.847473,47.956810 
	C405.756653,53.612106 403.627197,55.655159 397.931702,55.851330 
	C381.790649,56.407288 381.650024,56.269619 381.659973,39.983032 
	C381.663940,33.505215 381.575958,27.025753 381.695465,20.550097 
	C381.791351,15.354870 383.809967,13.363340 388.968536,13.172742 
	C392.120087,13.056298 395.283295,13.052813 398.434448,13.174637 
	C403.531342,13.371684 405.643768,15.483615 405.842102,20.555773 
	C405.958832,23.541058 405.867493,26.534475 405.869598,30.020535 
z"/>
<path fill="#FF9C07" opacity="1.000000" stroke="none" 
	d="
M39.302132,17.123810 
	C39.605991,22.133530 39.912525,26.765736 39.819241,31.389875 
	C39.744186,35.110367 37.361588,37.269623 33.782700,37.420471 
	C28.155626,37.657646 22.500536,37.672512 16.876955,37.390190 
	C13.298991,37.210560 11.093354,35.007042 11.024559,31.228243 
	C10.952087,27.247566 10.903748,23.260023 11.056494,19.283611 
	C11.189839,15.812255 13.290613,13.524586 16.622997,13.338202 
	C22.409496,13.014558 28.246683,12.971005 34.019196,13.397583 
	C35.796204,13.528900 37.431786,15.574014 39.302132,17.123810 
z"/>
</svg>