<svg version="1.1" id="Layer_1" xmlns="http://www.w3.org/2000/svg" xmlns:xlink="http://www.w3.org/1999/xlink" x="0px" y="0px"
	 width="100%" viewBox="0 0 525 603" enable-background="new 0 0 525 603" xml:space="preserve">
<path fill="#FFFFFF" opacity="1.000000" stroke="none" 
	d="
M1.000000,221.000000 
	C1.000000,147.349518 1.000000,74.199043 1.000000,1.024282 
	C175.945084,1.024282 350.890167,1.024282 525.917603,1.024282 
	C525.917603,201.900589 525.917603,402.801208 525.917603,603.850952 
	C351.000092,603.850952 176.000061,603.850952 1.000000,603.850952 
	C1.000000,476.442963 1.000000,348.971466 1.000000,221.000000 
M207.928711,43.923214 
	C207.905060,44.922092 207.860764,45.920971 207.860703,46.919849 
	C207.850723,219.847000 207.843445,392.774139 207.843307,565.701294 
	C207.843307,567.365784 207.896835,569.032898 207.997406,570.694397 
	C208.740677,582.973999 219.482361,594.662964 231.725403,594.935303 
	C254.021194,595.431091 276.335968,595.110657 298.642426,595.021912 
	C300.573547,595.014221 302.605316,594.452576 304.414032,593.715576 
	C316.339020,588.857056 322.145782,579.736328 322.147461,565.869873 
	C322.158630,473.575409 322.147583,381.280975 322.134186,288.986511 
	C322.134003,287.658386 322.011749,286.330261 322.118134,284.077637 
	C322.118134,232.490616 322.118134,180.903595 322.118134,128.851913 
	C324.716553,128.851913 326.679077,128.852036 328.641602,128.851898 
	C377.284546,128.848267 425.927490,128.862045 474.570435,128.832108 
	C493.175262,128.820663 504.886627,117.208694 504.972168,98.645607 
	C505.051971,81.321091 504.820221,63.993820 505.036163,46.671638 
	C505.239746,30.342016 494.320282,16.313807 475.291473,16.343567 
	C396.163605,16.467331 317.035431,16.363127 237.907379,16.415665 
	C230.123901,16.420834 222.647293,17.776783 216.334015,24.154886 
	C212.015106,28.989637 208.322937,34.125973 208.043259,41.649864 
	C208.068222,42.100758 208.093185,42.551655 207.928711,43.923214 
M24.994654,67.500000 
	C24.996243,78.332420 24.821720,89.168388 25.039906,99.996445 
	C25.383684,117.057426 37.194473,128.731552 54.273052,128.819412 
	C79.436981,128.948868 104.602875,128.970047 129.766449,128.807220 
	C147.693100,128.691223 159.551117,116.975388 159.792313,99.092522 
	C160.030533,81.430519 159.829544,63.762760 159.846756,46.097557 
	C159.862564,29.866711 147.571396,16.528223 132.841507,16.635895 
	C105.689575,16.834366 78.534683,16.720612 51.381477,16.616703 
	C37.157452,16.562273 24.828341,29.653105 24.985102,45.501835 
	C25.054327,52.500568 24.995399,59.500572 24.994654,67.500000 
z"/>
<path fill="#FFA51E" opacity="1.000000" stroke="none" 
	d="
M208.230698,40.994606 
	C208.322937,34.125973 212.015106,28.989637 216.669434,24.443054 
	C217.340530,26.181932 217.620026,27.648344 218.020294,29.081015 
	C224.658936,52.842583 230.768845,76.770134 238.133896,100.304779 
	C244.115692,119.419327 251.211182,138.216949 258.535889,156.871201 
	C266.646484,177.527054 274.913391,198.172607 284.335510,218.248520 
	C294.361786,239.611755 305.759705,260.334778 316.769409,281.226318 
	C317.663605,282.923096 320.182526,283.763672 321.946472,285.002136 
	C322.011749,286.330261 322.134003,287.658386 322.134186,288.986511 
	C322.147583,381.280975 322.158630,473.575409 322.147461,565.869873 
	C322.145782,579.736328 316.339020,588.857056 304.414032,593.715576 
	C302.605316,594.452576 300.573547,595.014221 298.642426,595.021912 
	C276.335968,595.110657 254.021194,595.431091 231.725403,594.935303 
	C219.482361,594.662964 208.740677,582.973999 207.997406,570.694397 
	C207.896835,569.032898 207.843307,567.365784 207.843307,565.701294 
	C207.843445,392.774139 207.850723,219.847000 207.860703,46.919849 
	C207.860764,45.920971 207.905060,44.922092 208.304260,43.421982 
	C208.989594,42.615982 209.299393,42.311222 209.609177,42.006454 
	C209.149689,41.669174 208.690186,41.331890 208.230698,40.994606 
z"/>
<path fill="#FFA825" opacity="1.000000" stroke="none" 
	d="
M322.032288,284.539886 
	C320.182526,283.763672 317.663605,282.923096 316.769409,281.226318 
	C305.759705,260.334778 294.361786,239.611755 284.335510,218.248520 
	C274.913391,198.172607 266.646484,177.527054 258.535889,156.871201 
	C251.211182,138.216949 244.115692,119.419327 238.133896,100.304779 
	C230.768845,76.770134 224.658936,52.842583 218.020294,29.081015 
	C217.620026,27.648344 217.340530,26.181932 216.991501,24.325064 
	C222.647293,17.776783 230.123901,16.420834 237.907379,16.415665 
	C317.035431,16.363127 396.163605,16.467331 475.291473,16.343567 
	C494.320282,16.313807 505.239746,30.342016 505.036163,46.671638 
	C504.820221,63.993820 505.051971,81.321091 504.972168,98.645607 
	C504.886627,117.208694 493.175262,128.820663 474.570435,128.832108 
	C425.927490,128.862045 377.284546,128.848267 328.641602,128.851898 
	C326.679077,128.852036 324.716553,128.851913 322.118134,128.851913 
	C322.118134,180.903595 322.118134,232.490616 322.032288,284.539886 
z"/>
<path fill="#FFA51E" opacity="1.000000" stroke="none" 
	d="
M24.994652,67.000000 
	C24.995399,59.500572 25.054327,52.500568 24.985102,45.501835 
	C24.828341,29.653105 37.157452,16.562273 51.381477,16.616703 
	C78.534683,16.720612 105.689575,16.834366 132.841507,16.635895 
	C147.571396,16.528223 159.862564,29.866711 159.846756,46.097557 
	C159.829544,63.762760 160.030533,81.430519 159.792313,99.092522 
	C159.551117,116.975388 147.693100,128.691223 129.766449,128.807220 
	C104.602875,128.970047 79.436981,128.948868 54.273052,128.819412 
	C37.194473,128.731552 25.383684,117.057426 25.039906,99.996445 
	C24.821720,89.168388 24.996243,78.332420 24.994652,67.000000 
z"/>
<path fill="#FFA825" opacity="1.000000" stroke="none" 
	d="
M208.136978,41.322235 
	C208.690186,41.331890 209.149689,41.669174 209.609177,42.006454 
	C209.299393,42.311222 208.989594,42.615982 208.398972,42.961647 
	C208.093185,42.551655 208.068222,42.100758 208.136978,41.322235 
z"/>
</svg>